<svg xmlns="http://www.w3.org/2000/svg" viewBox="0 0 412 112" role="img" aria-labelledby="title desc">
  <title id="title">Aurii logo</title>
  <desc id="desc">Aurii wordmark with a monogram and twin aura points.</desc>
  <defs>
    <linearGradient id="mark-bg" x1="12" y1="8" x2="96" y2="104" gradientUnits="userSpaceOnUse">
      <stop offset="0" stop-color="#17201E"/>
      <stop offset="0.62" stop-color="#273A34"/>
      <stop offset="1" stop-color="#61796D"/>
    </linearGradient>
    <linearGradient id="mark-fg" x1="24" y1="10" x2="86" y2="100" gradientUnits="userSpaceOnUse">
      <stop offset="0" stop-color="#FFFDF8"/>
      <stop offset="1" stop-color="#E4D6C4"/>
    </linearGradient>
  </defs>
  <g>
    <rect x="4" y="4" width="104" height="104" rx="30" fill="url(#mark-bg)"/>
    <path d="M28.4 82 51.7 28.9c1-2.3 2.7-3.4 5-3.4h.9c2.3 0 4 1.1 5 3.4L85.8 82H73.2l-4.5-11.1H44.3L39.7 82H28.4Zm21.7-25.5h12.1l-6-15-6.1 15Z" fill="url(#mark-fg)"/>
    <path d="M43.5 67.2h25.1" fill="none" stroke="#FFFDF8" stroke-opacity=".62" stroke-width="4" stroke-linecap="round"/>
    <circle cx="81.3" cy="28.6" r="4.8" fill="#E4D6C4"/>
    <circle cx="94.3" cy="28.6" r="4.8" fill="#8FA99A"/>
  </g>
  <g fill="#17201E">
    <path d="M145.8 80.8h-14.4l28.1-62.1h9.4l28.1 62.1h-15.2l-5.7-13.2h-24.6l-5.7 13.2Zm16.9-42.4-7.9 18.8h15.8l-7.9-18.8Z"/>
    <path d="M236.8 77.2c-4.2 3.1-9 4.7-14.4 4.7-6.6 0-11.8-2-15.7-6.1-3.9-4.1-5.8-9.8-5.8-17.1V36.2h12.7v21.6c0 3.7.9 6.5 2.8 8.5 1.9 2 4.4 3 7.5 3 3.5 0 6.3-1.2 8.5-3.6 2.2-2.4 3.3-5.8 3.3-10.2V36.2h12.7v44.6h-11.7v-3.6Z"/>
    <path d="M263.4 80.8V36.2h11.8v6.1c3.2-4.7 7.8-7 13.8-7 .9 0 1.8.1 2.5.2v12.7c-1.4-.3-2.7-.4-4.1-.4-4.2 0-7.6 1.1-10 3.4-2.4 2.3-3.6 5.7-3.6 10.4v19.2h-12.4Z"/>
    <path d="M305.2 28.3c-2.1 0-3.8-.7-5.2-2.1-1.4-1.4-2.1-3.1-2.1-5.1 0-2.1.7-3.8 2.1-5.2 1.4-1.4 3.1-2.1 5.2-2.1 2.1 0 3.8.7 5.2 2.1 1.4 1.4 2.1 3.1 2.1 5.2 0 2-.7 3.7-2.1 5.1-1.4 1.4-3.1 2.1-5.2 2.1Zm-6.3 52.5V36.2h12.7v44.6h-12.7Z"/>
    <path d="M337.2 28.3c-2.1 0-3.8-.7-5.2-2.1-1.4-1.4-2.1-3.1-2.1-5.1 0-2.1.7-3.8 2.1-5.2 1.4-1.4 3.1-2.1 5.2-2.1 2.1 0 3.8.7 5.2 2.1 1.4 1.4 2.1 3.1 2.1 5.2 0 2-.7 3.7-2.1 5.1-1.4 1.4-3.1 2.1-5.2 2.1Zm-6.3 52.5V36.2h12.7v44.6h-12.7Z"/>
  </g>
</svg>
